<svg width="142" height="102" viewBox="0 0 142 102" fill="none" xmlns="http://www.w3.org/2000/svg">
    <path d="M29.3883 25.6343C29.6025 19.8503 31.0557 29.0283 31.3716 30.317C36.9571 53.1057 43.5549 75.8404 51.2041 98.023M5.09348 22.1636C-3.79437 17.1642 21.4368 8.93351 31.3165 6.40774C48.0864 2.12048 73.7916 -0.197182 75.3337 23.7337C75.8981 32.4932 73.0102 38.9979 67.7312 45.7147C60.7857 54.5518 53.8241 54.4154 44.7585 58.8537M80.9529 46.9543C80.9529 45.3435 81.7609 47.138 82.0822 47.7806C88.1026 59.8214 93.1374 72.4214 98.8022 84.636M77.978 50.4249C79.452 39.4517 109.408 35.3261 101.942 50.3698C100.799 52.673 96.1682 57.3346 97.3698 60.8921C98.9199 65.4815 107.833 70.2742 110.908 71.9279L110.977 71.9653C119.695 76.6541 129.224 80.1231 138.467 83.6444" stroke="black" stroke-width="6" stroke-linecap="round"/>
</svg>