<?xml version="1.0" encoding="UTF-8" standalone="no"?>
<!DOCTYPE svg PUBLIC "-//W3C//DTD SVG 1.1//EN" "http://www.w3.org/Graphics/SVG/1.1/DTD/svg11.dtd">
<svg width="100%" height="100%" viewBox="0 0 149 151" version="1.1" xmlns="http://www.w3.org/2000/svg" xmlns:xlink="http://www.w3.org/1999/xlink" xml:space="preserve" xmlns:serif="http://www.serif.com/" style="fill-rule:evenodd;clip-rule:evenodd;stroke-linejoin:round;stroke-miterlimit:2;">
    <g transform="matrix(1,0,0,1,-186.402,-245.508)">
        <g transform="matrix(54.8914,0,0,5.98366,-37667.7,-1127.68)">
            <g transform="matrix(0.0182178,0,0,0.167122,686.222,188.46)">
                <path d="M237.992,283.297C237.828,283.226 237.643,283.197 237.453,283.225C236.906,283.303 236.526,283.81 236.604,284.356C236.662,284.762 236.856,285.02 237.088,285.191C237.35,285.386 237.74,285.508 238.254,285.371C238.685,285.257 239.381,284.843 240.153,284.32C241.056,283.707 242.109,282.931 242.909,282.664C244.371,282.177 247.983,281.466 250.639,281.935C251.993,282.174 253.127,282.692 253.127,284.039C253.127,284.591 253.575,285.039 254.127,285.039C254.679,285.039 255.127,284.591 255.127,284.039C255.127,281.638 253.4,280.391 250.986,279.965C247.994,279.438 243.923,280.218 242.277,280.766C241.341,281.078 240.087,281.948 239.03,282.664C238.69,282.895 238.26,283.146 237.992,283.297Z"/>
            </g>
            <g transform="matrix(0.0182178,0,0,0.167122,686.222,188.46)">
                <path d="M267.256,287.056C267.051,286.647 266.979,286.299 267.086,285.998C267.2,285.68 267.484,285.444 267.844,285.237C268.53,284.84 269.48,284.597 270.54,284.471C273.076,284.169 276.231,284.558 278.252,285.595C279.262,286.113 280.018,286.749 279.887,287.669C279.809,288.215 280.189,288.722 280.736,288.8C281.282,288.878 281.789,288.498 281.867,287.952C282.113,286.231 281.055,284.784 279.165,283.815C276.841,282.623 273.219,282.137 270.303,282.485C266.437,282.946 263.96,284.936 265.467,287.951C265.714,288.444 266.315,288.645 266.809,288.398C267.302,288.151 267.503,287.55 267.256,287.056Z"/>
            </g>
            <g transform="matrix(0.0182178,0,0,0.167122,686.222,188.46)">
                <path d="M252.931,289.468C252.97,289.467 253.01,289.463 253.051,289.457C253.596,289.373 253.971,288.862 253.887,288.316C253.769,287.548 253.382,287.267 253.161,287.163C252.803,286.994 252.364,286.976 251.924,287.356C251.761,287.497 251.551,287.776 251.356,288.15C251.078,288.684 250.768,289.477 250.527,289.924C249.878,291.13 248.887,292.273 248.024,293.476C247.034,294.857 246.211,296.316 246.029,297.961C245.909,299.035 246.165,299.861 246.636,300.488C247.294,301.363 248.439,301.87 249.82,301.99C251.572,302.142 253.72,301.688 255.38,300.922C256.6,300.358 257.554,299.609 258.01,298.85C258.294,298.376 258.14,297.762 257.667,297.478C257.194,297.194 256.579,297.347 256.295,297.821C255.999,298.314 255.334,298.74 254.541,299.106C253.182,299.734 251.427,300.122 249.993,299.997C249.249,299.933 248.589,299.758 248.235,299.286C248.031,299.015 247.965,298.647 248.016,298.182C248.162,296.875 248.863,295.739 249.649,294.642C250.563,293.367 251.6,292.149 252.288,290.872C252.477,290.521 252.707,289.947 252.931,289.468Z"/>
            </g>
            <g transform="matrix(0.0182178,0,0,0.167122,686.222,188.46)">
                <path d="M246.515,312.533L246.522,312.545C246.903,313.162 247.383,313.987 247.941,314.686C248.74,315.69 249.728,316.394 250.75,316.394C252.198,316.394 254.219,315.331 255.842,313.823C257.486,312.296 258.679,310.34 258.679,308.816C258.679,308.264 258.231,307.816 257.679,307.816C257.127,307.816 256.679,308.264 256.679,308.816C256.679,309.92 255.671,311.252 254.481,312.358C253.272,313.481 251.829,314.394 250.75,314.394C250.504,314.394 250.291,314.236 250.077,314.052C249.727,313.75 249.411,313.34 249.122,312.92C248.65,312.234 248.254,311.517 247.95,311.064C247.742,310.754 247.545,310.534 247.392,310.415C246.954,310.074 246.539,310.098 246.213,310.239C245.972,310.343 245.572,310.624 245.462,311.393C245.384,311.94 245.765,312.446 246.311,312.525C246.38,312.534 246.448,312.537 246.515,312.533Z"/>
            </g>
            <g transform="matrix(0.0182178,0,0,0.167122,686.222,188.46)">
                <path d="M252.406,274.018C251.523,275.716 251.767,275.37 251.767,276.497C251.767,277.049 252.215,277.497 252.767,277.497C253.319,277.497 253.767,277.049 253.767,276.497C253.767,275.788 253.625,276.009 254.181,274.941C254.435,274.451 254.244,273.847 253.755,273.592C253.265,273.338 252.661,273.528 252.406,274.018Z"/>
            </g>
            <g transform="matrix(0.0182178,0,0,0.167122,686.222,188.46)">
                <path d="M258.809,256.725C259.439,259.455 258.474,263.062 258.296,266.476C258.092,270.372 258.815,274.011 262.949,276.237C264.094,276.853 266.029,277.319 268.326,277.738C271.55,278.325 275.524,278.854 278.851,279.786C280.594,280.274 282.155,280.868 283.297,281.663C284.246,282.324 284.892,283.116 284.966,284.154C285.006,284.705 285.485,285.12 286.035,285.081C286.586,285.041 287.001,284.562 286.961,284.012C286.845,282.377 285.934,281.062 284.44,280.022C283.14,279.117 281.375,278.416 279.39,277.86C276.006,276.912 271.965,276.368 268.684,275.77C266.644,275.398 264.914,275.023 263.898,274.476C260.579,272.689 260.13,269.707 260.293,266.581C260.482,262.974 261.424,259.159 260.758,256.275C260.634,255.737 260.097,255.401 259.559,255.526C259.021,255.65 258.685,256.187 258.809,256.725Z"/>
            </g>
            <g transform="matrix(0.0182178,0,0,0.167122,686.222,188.46)">
                <path d="M260.424,258.877C261.54,261.108 261.664,263.598 262.125,265.969C262.648,268.658 263.556,271.203 266.244,273.218C270.181,276.171 275.045,276.187 279.331,276.963C281.604,277.375 283.703,278.015 285.304,279.678C286.37,280.786 287.206,282.342 287.757,284.545C287.89,285.08 288.434,285.406 288.969,285.272C289.505,285.139 289.831,284.595 289.697,284.06C289.042,281.44 288.013,279.608 286.744,278.291C284.844,276.316 282.385,275.484 279.687,274.995C275.688,274.271 271.117,274.373 267.444,271.618C265.219,269.95 264.521,267.813 264.088,265.587C263.593,263.041 263.411,260.379 262.213,257.982C261.966,257.489 261.365,257.288 260.871,257.535C260.378,257.782 260.177,258.383 260.424,258.877Z"/>
            </g>
            <g transform="matrix(0.0182178,0,0,0.167122,686.222,188.46)">
                <path d="M288.536,281.768C287.991,281.776 287.551,282.221 287.551,282.767C287.551,283.319 287.999,283.767 288.551,283.767C289.3,283.767 289.793,283.481 290.118,283.065C290.493,282.586 290.647,281.808 290.47,280.839C289.999,278.255 287.224,273.842 286.496,273.115C283.917,270.536 280.295,269.582 276.606,268.835C273.253,268.156 269.846,267.659 267.33,265.898C266.689,265.45 266.43,264.64 266.222,263.777C265.951,262.651 265.82,261.416 265.546,260.393C265.259,259.323 264.798,258.462 264.08,257.963C263.548,257.592 262.867,257.388 261.965,257.478C261.415,257.533 261.014,258.024 261.069,258.573C261.124,259.122 261.614,259.523 262.164,259.468C262.789,259.406 263.131,259.693 263.346,260.148C263.579,260.638 263.71,261.254 263.831,261.908C264.051,263.089 264.229,264.378 264.644,265.443C264.981,266.309 265.471,267.039 266.183,267.537C268.909,269.445 272.576,270.059 276.209,270.795C279.505,271.462 282.778,272.225 285.081,274.529C285.625,275.073 287.458,277.988 288.234,280.225C288.332,280.506 288.412,280.775 288.468,281.026C288.507,281.202 288.534,281.368 288.545,281.521C288.55,281.597 288.543,281.696 288.536,281.768Z"/>
            </g>
            <g transform="matrix(0.0182178,0,0,0.167122,686.222,188.46)">
                <path d="M289.394,278.977C289.388,279.307 289.544,279.632 289.838,279.828C290.104,280.005 290.359,280.021 290.577,279.98C290.684,279.96 291.474,279.725 291.392,278.834C291.35,278.369 290.86,275.836 290.76,275.336C290.228,272.678 288.762,269.34 286.659,267.537C284.033,265.287 280.382,263.717 276.587,262.331C272.949,261.003 269.181,259.839 266.151,258.324C265.657,258.078 265.056,258.278 264.809,258.772C264.563,259.265 264.763,259.866 265.257,260.113C268.348,261.659 272.189,262.855 275.901,264.21C279.457,265.508 282.897,266.947 285.357,269.055C287.149,270.592 288.346,273.464 288.799,275.728C288.886,276.166 289.332,278.634 289.394,278.977ZM290.057,278.054C289.959,278.089 289.862,278.139 289.772,278.213C289.858,278.144 289.955,278.091 290.057,278.054ZM290.297,278.001C290.518,277.979 290.748,278.031 290.948,278.164C290.717,278.01 290.495,277.98 290.297,278.001ZM290.092,278.043L290.074,278.049L290.092,278.043Z"/>
            </g>
            <g transform="matrix(0.0182178,0,0,0.167122,686.222,188.46)">
                <path d="M263.795,257.252C264.131,257.123 264.723,256.914 265.243,256.813C267.694,256.34 271.27,256.248 271.8,256.271C274.846,256.404 281.557,259.937 285.761,264.103C287.122,265.452 288.22,266.868 288.809,268.271C289.321,269.491 289.436,270.694 288.885,271.796C288.638,272.289 288.838,272.891 289.332,273.137C289.826,273.384 290.427,273.184 290.674,272.69C291.485,271.067 291.407,269.295 290.653,267.497C289.976,265.882 288.736,264.235 287.169,262.682C282.588,258.143 275.206,254.417 271.887,254.273C271.358,254.25 267.992,254.33 265.414,254.752C264.187,254.953 263.13,255.25 262.542,255.61C261.94,255.978 261.675,256.461 261.644,256.927C261.62,257.271 261.711,257.658 262.036,258.054C262.385,258.481 263.016,258.544 263.443,258.195C263.731,257.959 263.854,257.595 263.795,257.252Z"/>
            </g>
            <g transform="matrix(0.0182178,0,0,0.167122,686.222,188.46)">
                <path d="M262.138,256.906C262.469,253.602 265.289,252.934 268.633,253.33C274.36,254.008 281.71,257.848 283.861,260.239C287.38,264.148 289.447,270.036 289.879,275.22C290.011,276.805 289.185,279.539 289.042,281.878C288.921,283.848 289.302,285.555 290.529,286.498C290.966,286.835 291.595,286.753 291.931,286.315C292.268,285.878 292.186,285.249 291.748,284.913C291.429,284.667 291.256,284.306 291.151,283.889C291.011,283.332 290.996,282.685 291.038,282C291.187,279.562 292.01,276.707 291.872,275.054C291.406,269.46 289.144,263.119 285.348,258.901C283.406,256.743 277.582,253.434 272.098,251.978C269.86,251.384 267.679,251.098 265.835,251.289C264.307,251.447 262.997,251.932 262.017,252.786C261.01,253.663 260.326,254.932 260.148,256.707C260.093,257.257 260.494,257.747 261.044,257.802C261.593,257.857 262.083,257.456 262.138,256.906Z"/>
            </g>
            <g transform="matrix(0.0182178,0,0,0.167122,686.222,188.46)">
                <path d="M254.988,259.022C255.17,259.269 255.463,259.429 255.793,259.429C256.456,259.429 256.712,259.061 256.798,258.922C256.99,258.608 257.064,258.216 256.748,257.781C256.688,257.7 256.588,257.587 256.42,257.48C256.275,257.388 255.955,257.242 255.505,257.083C253.689,256.445 249.33,255.325 247.856,255.325C241.132,255.325 234.641,256.285 228.944,259.91C226.326,261.576 224.915,264.277 224.385,267.239C223.619,271.525 224.726,276.342 226.445,279.072C227.997,281.537 230.065,282.353 231.86,280.917C232.291,280.572 232.361,279.943 232.016,279.512C231.671,279.081 231.042,279.011 230.611,279.355C230.197,279.686 229.761,279.645 229.35,279.37C228.917,279.081 228.513,278.604 228.137,278.007C226.625,275.604 225.68,271.362 226.354,267.591C226.785,265.18 227.887,262.954 230.018,261.597C235.388,258.18 241.518,257.325 247.856,257.325C249.249,257.325 253.468,258.456 254.988,259.022Z"/>
            </g>
            <g transform="matrix(0.0182178,0,0,0.167122,686.222,188.46)">
                <path d="M232.296,280.142C231.705,278.84 230.751,275.277 230.64,274.971C230.017,273.258 230.048,270.974 230.558,268.806C231.066,266.645 232.052,264.587 233.439,263.339C235.882,261.141 238.539,260.628 241.37,260.549C243.404,260.493 245.524,260.657 247.724,260.657C248.477,260.657 251.098,260.804 252.747,261.056C252.75,261.074 252.753,261.092 252.758,261.11C252.882,261.648 253.419,261.984 253.957,261.86C254.819,261.661 255.179,261.301 255.289,261.119C255.556,260.679 255.539,260.243 255.168,259.824C255.013,259.648 254.568,259.382 253.873,259.232C252.244,258.881 248.658,258.657 247.724,258.657C244.929,258.657 242.26,258.402 239.732,258.644C237.03,258.903 234.484,259.708 232.101,261.852C230.447,263.341 229.217,265.77 228.611,268.348C228.006,270.918 228.022,273.624 228.761,275.654C228.867,275.948 229.739,279.156 230.348,280.669C230.581,281.245 230.837,281.633 230.995,281.776C231.302,282.053 231.618,282.093 231.868,282.062C232.157,282.025 232.484,281.891 232.7,281.461C232.939,280.982 232.758,280.402 232.296,280.142ZM231.305,280.148C231.156,280.221 231.019,280.35 230.911,280.566C231.002,280.384 231.141,280.242 231.305,280.148Z"/>
            </g>
            <g transform="matrix(0.0182178,0,0,0.167122,686.222,188.46)">
                <path d="M234.727,280.361C234.599,280.173 234.432,279.91 234.319,279.667C233.562,278.044 232.892,275.237 232.981,272.659C233.035,271.072 233.362,269.566 234.231,268.552C236.542,265.857 240.382,264.002 244.38,263.265C248.355,262.532 252.505,262.899 255.482,264.759C255.95,265.052 256.568,264.909 256.86,264.441C257.153,263.973 257.01,263.356 256.542,263.063C253.181,260.962 248.506,260.471 244.018,261.298C239.553,262.121 235.292,264.241 232.713,267.251C231.424,268.754 230.93,271.054 230.976,273.434C231.043,276.86 232.208,280.414 233.202,281.701C233.685,282.328 234.231,282.556 234.649,282.555C235.072,282.553 235.5,282.382 235.839,281.875C236.145,281.416 236.021,280.794 235.561,280.488C235.306,280.318 235.001,280.281 234.727,280.361Z"/>
            </g>
            <g transform="matrix(0.0182178,0,0,0.167122,686.222,188.46)">
                <path d="M235.431,281.295C235.389,281.141 235.321,280.866 235.292,280.64C235.056,278.775 235.279,275.555 235.304,274.821C235.555,267.552 241.281,266.339 247.43,265.156C248.22,265.004 252.364,264.843 253.975,265.186C254.038,265.314 254.129,265.43 254.247,265.525C254.678,265.87 255.308,265.8 255.653,265.369C255.918,265.038 255.962,264.712 255.918,264.427C255.864,264.071 255.561,263.561 254.774,263.326C253.173,262.851 247.999,263.01 247.053,263.192C239.929,264.562 233.596,266.332 233.306,274.752C233.275,275.652 233.006,280.034 233.469,281.751C233.741,282.761 234.385,283.154 234.919,283.154C235.471,283.154 235.919,282.705 235.919,282.154C235.919,281.789 235.723,281.469 235.431,281.295Z"/>
            </g>
            <g transform="matrix(0.0182178,0,0,0.167122,686.222,188.46)">
                <path d="M237.56,276.636C237.551,276.618 237.519,276.554 237.505,276.511C237.468,276.395 237.444,276.262 237.428,276.115C237.377,275.631 237.418,275.037 237.515,274.405C237.702,273.187 238.102,271.84 238.565,270.828C238.809,270.295 239.038,269.855 239.29,269.666C241.679,267.875 245.84,266.2 249.807,265.592C252.357,265.202 254.829,265.24 256.659,266.053C257.163,266.277 257.754,266.049 257.979,265.545C258.203,265.041 257.975,264.449 257.471,264.225C255.342,263.279 252.472,263.161 249.504,263.615C245.195,264.275 240.685,266.12 238.09,268.066C237.703,268.357 237.268,268.931 236.885,269.704C236.142,271.203 235.506,273.503 235.418,275.251C235.381,275.989 235.444,276.639 235.603,277.129C235.761,277.617 236.019,277.98 236.336,278.218C236.778,278.549 237.405,278.459 237.736,278.017C238.061,277.584 237.981,276.972 237.56,276.636Z"/>
            </g>
            <g transform="matrix(0.0182178,0,0,0.167122,686.222,188.46)">
                <path d="M260.976,263.153C259.289,256.068 253.115,250.312 246.043,247.972C238.907,245.611 230.901,246.711 225.674,253.244C224.044,255.283 221.378,260.392 220.748,264.66C220.268,267.906 221.001,270.654 223.622,271.722C224.133,271.93 224.717,271.684 224.926,271.173C225.134,270.662 224.888,270.078 224.377,269.87C222.594,269.143 222.4,267.161 222.726,264.952C223.303,261.043 225.742,256.361 227.236,254.494C231.896,248.669 239.053,247.766 245.415,249.871C251.84,251.997 257.497,257.179 259.03,263.616C259.158,264.153 259.698,264.485 260.235,264.358C260.771,264.23 261.104,263.69 260.976,263.153Z"/>
            </g>
            <g transform="matrix(0.0182178,0,0,0.167122,686.222,188.46)">
                <path d="M257.474,261.188C254.536,256.488 249.034,252.721 243.259,251.471C237.373,250.197 231.226,251.513 227.146,256.952C225.703,258.877 224.231,263.08 224.334,266.527C224.411,269.121 225.383,271.27 227.551,272.083C228.068,272.277 228.645,272.015 228.839,271.498C229.033,270.981 228.77,270.404 228.254,270.21C226.833,269.677 226.383,268.167 226.333,266.468C226.244,263.477 227.494,259.822 228.746,258.152C232.308,253.403 237.696,252.314 242.836,253.426C248.089,254.563 253.106,257.973 255.778,262.248C256.071,262.716 256.688,262.859 257.156,262.566C257.624,262.274 257.767,261.656 257.474,261.188Z"/>
            </g>
            <g transform="matrix(0.0182178,0,0,0.167122,686.222,188.46)">
                <path d="M258.732,261.725C260.122,260.509 260.135,258.72 259.312,256.897C258.29,254.633 255.977,252.342 254.721,251.604C247.625,247.429 238.081,245.438 231.57,249.905C228.74,251.846 226.45,254.998 225.182,259.75C224.274,263.157 223.493,267.14 225.27,270.398C225.535,270.882 226.143,271.061 226.627,270.797C227.112,270.532 227.29,269.924 227.026,269.44C225.495,266.633 226.332,263.201 227.115,260.266C228.232,256.075 230.206,253.266 232.701,251.554C238.614,247.497 247.263,249.537 253.707,253.327C254.746,253.938 256.644,255.847 257.489,257.72C257.913,258.658 258.13,259.595 257.415,260.22C257,260.584 256.957,261.216 257.321,261.631C257.684,262.047 258.317,262.089 258.732,261.725Z"/>
            </g>
            <g transform="matrix(0.0182178,0,0,0.167122,686.222,188.46)">
                <path d="M260.008,261.538C258.609,260.138 258.937,257.975 259.883,255.831C260.846,253.65 262.517,251.484 264.233,249.965C265.304,249.018 266.379,248.317 267.306,248.086C271.503,247.036 274.839,247.475 277.478,248.948C280.134,250.428 282.073,252.931 283.502,255.903C286.483,262.101 287.244,270.321 287.244,276.19C287.244,276.742 287.692,277.19 288.244,277.19C288.796,277.19 289.244,276.742 289.244,276.19C289.244,270.068 288.414,261.501 285.304,255.036C283.687,251.675 281.456,248.876 278.453,247.201C275.433,245.517 271.622,244.945 266.821,246.145C265.65,246.438 264.26,247.271 262.908,248.468C260.991,250.164 259.129,252.588 258.054,255.023C256.736,258.008 256.646,261.004 258.594,262.952C258.984,263.342 259.618,263.342 260.008,262.952C260.399,262.561 260.399,261.928 260.008,261.538Z"/>
            </g>
            <g transform="matrix(0.0182178,0,0,0.167122,686.222,188.46)">
                <path d="M232.397,285.855C231.792,286.581 231.378,287.598 231.17,288.85C230.895,290.508 230.969,292.614 231.315,294.942C232.224,301.063 234.995,308.771 237.668,313.663C238.882,315.886 240.104,317.54 241.116,318.298C241.558,318.63 242.185,318.54 242.516,318.098C242.847,317.657 242.758,317.03 242.316,316.698C241.584,316.15 240.761,315.017 239.889,313.529C237.694,309.782 235.348,303.846 234.035,298.4C233.298,295.343 232.883,292.443 233.03,290.188C233.115,288.884 233.367,287.815 233.933,287.135C234.286,286.711 234.229,286.08 233.805,285.727C233.381,285.373 232.75,285.431 232.397,285.855Z"/>
            </g>
            <g transform="matrix(0.0182178,0,0,0.167122,686.222,188.46)">
                <path d="M240.359,318.681C240.872,319.233 241.894,320.484 242.754,321.351C243.244,321.844 243.706,322.221 244.032,322.383C248.342,324.539 252.05,326.204 256.926,325.595C262.645,324.88 268.97,321.235 273.851,316.23C278.757,311.201 282.184,304.811 282.184,298.73C282.184,298.178 281.736,297.73 281.184,297.73C280.632,297.73 280.184,298.178 280.184,298.73C280.184,304.339 276.944,310.195 272.42,314.834C267.872,319.497 262.006,322.944 256.678,323.61C252.226,324.167 248.862,322.562 244.926,320.595C244.402,320.332 243.468,319.203 242.711,318.33C242.033,317.548 241.445,316.934 241.278,316.84C240.977,316.671 240.722,316.69 240.56,316.722C240.315,316.772 240.12,316.894 239.969,317.082C239.857,317.222 239.649,317.519 239.787,318.025C239.87,318.331 240.088,318.565 240.359,318.681ZM241.731,317.561C241.727,317.541 241.722,317.52 241.716,317.498C241.722,317.519 241.727,317.54 241.731,317.561Z"/>
            </g>
            <g transform="matrix(0.0182178,0,0,0.167122,686.222,188.46)">
                <path d="M285.166,286.589C285.249,286.64 285.352,286.709 285.422,286.769C285.866,287.154 286.268,287.705 286.411,287.956C287.466,289.801 287.871,292.436 287.8,294.985C287.728,297.527 287.184,299.994 286.232,301.508C285.781,302.224 285.275,302.736 284.61,302.674C283.793,302.598 282.938,301.837 281.92,300.356C281.608,299.901 280.985,299.786 280.53,300.098C280.075,300.411 279.96,301.034 280.272,301.489C281.771,303.669 283.221,304.553 284.424,304.666C285.781,304.792 287.005,304.035 287.925,302.572C289.026,300.821 289.716,297.981 289.799,295.041C289.881,292.108 289.361,289.087 288.148,286.964C287.842,286.429 286.734,285.03 285.788,284.656C285.019,284.353 284.307,284.465 283.761,285.193C283.43,285.635 283.519,286.262 283.961,286.593C284.326,286.868 284.82,286.853 285.166,286.589Z"/>
            </g>
            <g transform="matrix(0.0182178,0,0,0.167122,686.222,188.46)">
                <path d="M270.364,317.449C269.659,317.826 269.082,318.497 268.666,319.442C268.159,320.595 267.877,322.201 267.788,324.075C267.463,330.894 269.613,341.468 270.566,345.28C270.7,345.816 271.243,346.142 271.779,346.008C272.314,345.874 272.64,345.331 272.506,344.795C271.579,341.087 269.47,330.803 269.786,324.17C269.849,322.832 270.01,321.651 270.316,320.724C270.549,320.015 270.836,319.464 271.305,319.214C271.792,318.954 271.977,318.348 271.717,317.861C271.457,317.374 270.851,317.19 270.364,317.449Z"/>
            </g>
            <g transform="matrix(0.0182178,0,0,0.167122,686.222,188.46)">
                <path d="M248.129,324.49C249.698,327.94 249.494,331.133 248.744,334.346C247.943,337.779 246.535,341.236 245.779,345.017C245.67,345.558 246.022,346.085 246.563,346.194C247.104,346.302 247.632,345.95 247.74,345.409C248.492,341.65 249.895,338.214 250.692,334.801C251.54,331.169 251.723,327.563 249.95,323.663C249.722,323.16 249.128,322.938 248.626,323.166C248.123,323.394 247.901,323.988 248.129,324.49Z"/>
            </g>
            <g transform="matrix(0.0182178,0,0,0.167122,686.222,188.46)">
                <path d="M259.608,354.8C259.374,354.732 258.935,354.596 258.601,354.449C257.126,353.798 255.225,352.655 254.626,352.267C250.393,349.528 245.249,348.29 241.471,344.827C241.064,344.454 240.431,344.481 240.058,344.888C239.685,345.295 239.713,345.928 240.12,346.301C243.98,349.84 249.214,351.147 253.539,353.946C254.419,354.515 257.863,356.532 259.33,356.803C260.396,357 260.956,356.488 261.105,355.893C261.238,355.357 260.912,354.814 260.377,354.68C260.104,354.612 259.829,354.663 259.608,354.8ZM259.175,355.367C259.171,355.38 259.168,355.394 259.164,355.407L259.175,355.367Z"/>
            </g>
            <g transform="matrix(0.0182178,0,0,0.167122,686.222,188.46)">
                <path d="M256.557,357.136C256.34,356.995 256.068,356.937 255.795,356.998C255.257,357.118 254.916,357.652 255.036,358.191C255.172,358.802 255.587,359.15 256.239,359.202C256.778,359.245 257.697,358.906 258.296,358.486C263.649,354.739 267.703,349.513 272.838,345.662C273.279,345.331 273.369,344.704 273.038,344.262C272.707,343.821 272.079,343.731 271.638,344.062C266.52,347.9 262.484,353.114 257.149,356.848C257.007,356.947 256.738,357.063 256.557,357.136ZM256.979,357.718L256.988,357.757C256.986,357.744 256.982,357.731 256.979,357.718Z"/>
            </g>
            <g transform="matrix(0.0182178,0,0,0.167122,686.222,188.46)">
                <path d="M248.424,339.95C247.637,338.525 246.144,338.036 244.265,338.27C240.878,338.692 236.051,341.613 233.877,342.643C221.656,348.431 207.432,357.224 194.115,359.888C193.574,359.996 193.222,360.523 193.33,361.064C193.439,361.606 193.966,361.957 194.507,361.849C207.974,359.156 222.375,350.304 234.733,344.45C236.513,343.608 240.139,341.402 243.178,340.538C244.059,340.288 244.881,340.147 245.57,340.241C246.045,340.305 246.441,340.496 246.673,340.917C246.94,341.4 247.549,341.575 248.032,341.308C248.515,341.042 248.691,340.433 248.424,339.95Z"/>
            </g>
            <g transform="matrix(0.0182178,0,0,0.167122,686.222,188.46)">
                <path d="M270.069,340.57C271.276,340.268 272.879,340.818 274.535,341.582C277.349,342.881 280.255,344.919 281.828,345.818C290.63,350.848 300.642,354.174 309.768,358.737C311.37,359.538 314.527,360.612 317.101,361.954C318.602,362.737 319.92,363.571 320.415,364.561C320.662,365.054 321.263,365.255 321.757,365.008C322.25,364.761 322.451,364.16 322.204,363.666C321.565,362.389 319.963,361.191 318.025,360.181C315.441,358.833 312.272,357.753 310.662,356.948C301.569,352.402 291.59,349.093 282.82,344.082C281.215,343.165 278.245,341.092 275.374,339.767C273.24,338.781 271.139,338.241 269.583,338.63C269.048,338.764 268.722,339.307 268.856,339.843C268.99,340.378 269.533,340.704 270.069,340.57Z"/>
            </g>
            <g transform="matrix(0.0182178,0,0,0.167122,686.222,188.46)">
                <path d="M192.329,362.245C198.303,365.232 209.521,365.016 216.201,365.851C226.738,367.168 236.832,372.541 247.115,373.398C249.33,373.583 256.098,375.532 259.014,377.926C259.818,378.586 260.397,379.213 259.866,379.907C259.531,380.345 259.615,380.973 260.053,381.309C260.492,381.644 261.12,381.56 261.455,381.122C262.657,379.55 262.103,377.875 260.283,376.38C257.095,373.763 249.703,371.607 247.281,371.405C237.025,370.55 226.959,365.18 216.449,363.867C209.954,363.055 199.032,363.36 193.223,360.456C192.73,360.21 192.128,360.41 191.882,360.904C191.635,361.397 191.835,361.998 192.329,362.245Z"/>
            </g>
            <g transform="matrix(0.0182178,0,0,0.167122,686.222,188.46)">
                <path d="M330.795,371.198C330.843,371.303 330.91,371.4 330.996,371.486C331.386,371.876 332.02,371.876 332.41,371.486C332.902,370.994 333.028,369.972 331.657,369.381C330.007,368.67 324.818,367.808 323.644,367.64C317.908,366.821 311.865,366.656 305.997,366.186C299.687,365.681 278.85,366.16 264.72,368.447C258.449,369.462 253.478,370.895 251.489,372.663C251.076,373.029 251.039,373.662 251.406,374.074C251.772,374.487 252.405,374.524 252.818,374.158C254.648,372.531 259.268,371.356 265.039,370.422C279.005,368.161 299.6,367.681 305.837,368.18C311.664,368.646 317.665,368.807 323.361,369.62C324.334,369.759 328.222,370.387 330.226,370.994C330.425,371.054 330.64,371.136 330.795,371.198Z"/>
            </g>
            <g transform="matrix(0.0182178,0,0,0.167122,686.222,188.46)">
                <path d="M192.496,362.964C192.902,363.148 193.397,363.041 193.689,362.677C194.033,362.246 193.963,361.616 193.532,361.272C192.691,360.599 191.646,360.747 190.673,361.96C189.177,363.826 187.535,368.868 186.807,372.237C186.467,373.813 186.349,375.056 186.445,375.536C187.011,378.365 189.004,381.091 191.648,383.381C195.49,386.709 200.685,389.122 204.464,389.703C213.195,391.046 223.906,395.232 232.968,394.225C240.923,393.341 252.718,391.622 263.402,391.904C270.365,392.087 276.853,393.106 281.415,395.843C281.888,396.127 282.503,395.973 282.787,395.5C283.071,395.027 282.917,394.412 282.444,394.128C277.631,391.24 270.801,390.098 263.455,389.905C252.675,389.62 240.773,391.346 232.747,392.237C223.848,393.226 213.341,389.045 204.768,387.726C201.282,387.19 196.502,384.939 192.957,381.869C190.676,379.894 188.895,377.584 188.407,375.144C188.345,374.834 188.471,374.103 188.661,373.147C189.174,370.565 190.342,366.594 191.565,364.276C191.846,363.743 192.316,363.173 192.496,362.964Z"/>
            </g>
            <g transform="matrix(0.0182178,0,0,0.167122,686.222,188.46)">
                <path d="M259.794,375.112C259.446,375.03 259.064,375.138 258.812,375.427C258.393,375.906 258.521,376.338 258.686,376.624C258.785,376.796 259.038,377.135 259.619,377.146C260.383,377.161 265.646,375.711 267.599,375.06C270.276,374.168 274.819,373.142 278.827,373.271C281.301,373.35 283.574,373.838 284.95,375.214C289.014,379.278 290.566,385.505 289.808,389.865C289.469,391.813 288.689,393.386 287.349,394.047C285.998,394.714 284.18,394.378 281.87,392.838C281.411,392.532 280.79,392.656 280.483,393.115C280.177,393.574 280.302,394.196 280.761,394.502C283.887,396.586 286.405,396.743 288.233,395.841C290.072,394.934 291.313,392.88 291.778,390.207C292.627,385.327 290.914,378.349 286.364,373.799C284.675,372.11 281.929,371.369 278.891,371.272C274.634,371.135 269.809,372.215 266.966,373.163C265.34,373.705 260.653,374.895 259.794,375.112ZM260.56,375.995C260.584,376.258 260.504,376.53 260.317,376.744C260.555,376.471 260.598,376.215 260.56,375.995Z"/>
            </g>
            <g transform="matrix(0.0182178,0,0,0.167122,686.222,188.46)">
                <path d="M319.3,364.652C319.466,364.681 319.899,364.764 320.232,364.886C321.4,365.313 322.917,366.149 324.083,366.947C324.775,367.421 325.346,367.861 325.574,368.191C327.123,370.428 329.332,372.847 330.886,375.392C332.146,377.457 332.989,379.6 332.438,381.808C332.069,383.285 331.08,384.767 329.265,386.28C325.737,389.22 320.896,389.843 315.909,389.902C310.647,389.965 305.213,389.38 300.807,389.869C299.507,390.014 294.223,389.325 291.98,389.41C291.424,389.431 291.004,389.512 290.765,389.612C290.411,389.759 290.217,389.988 290.113,390.197C289.866,390.691 290.066,391.292 290.56,391.539C290.909,391.713 291.312,391.664 291.605,391.445C292.208,391.337 293.478,391.414 294.881,391.512C297.319,391.684 300.116,391.959 301.028,391.857C305.377,391.374 310.739,391.964 315.932,391.902C321.401,391.838 326.677,391.04 330.545,387.816C332.771,385.962 333.927,384.104 334.378,382.292C335.058,379.568 334.147,376.896 332.593,374.35C331.019,371.772 328.787,369.318 327.219,367.052C326.866,366.543 325.959,365.778 324.832,365.043C323.243,364.006 321.224,362.996 319.978,362.726C318.998,362.513 318.308,362.787 317.992,363.173C317.643,363.6 317.706,364.231 318.133,364.58C318.474,364.86 318.946,364.876 319.3,364.652Z"/>
            </g>
            <g transform="matrix(0.0182178,0,0,0.167122,686.222,188.46)">
                <path d="M224.457,350.863C224.953,351.013 225.489,350.756 225.678,350.264C225.876,349.749 225.619,349.17 225.104,348.972C224.889,348.889 224.602,348.843 224.251,348.869C223.782,348.905 223.119,349.084 222.363,349.368C220.166,350.194 217.034,351.908 216.03,352.443C212.281,354.443 205.692,354.363 200.016,355.198C195.883,355.806 192.22,356.91 190.175,359.297C188.929,360.75 189.513,362.507 190.748,363.447C191.573,364.076 192.666,364.298 193.621,363.88C194.197,363.627 194.748,363.139 195.134,362.291C195.362,361.788 195.139,361.195 194.637,360.967C194.135,360.738 193.541,360.961 193.313,361.463C193.159,361.802 192.972,362.016 192.735,362.076C192.372,362.169 191.995,361.946 191.747,361.655C191.501,361.367 191.389,360.953 191.693,360.598C192.772,359.339 194.41,358.556 196.327,357.999C198.398,357.398 200.787,357.076 203.224,356.816C208.36,356.268 213.693,355.957 216.971,354.208C217.938,353.693 220.951,352.035 223.067,351.24C223.623,351.031 224.383,350.877 224.457,350.863Z"/>
            </g>
            <g transform="matrix(0.0182178,0,0,0.167122,686.222,188.46)">
                <path d="M233.769,364.949C232.908,365.942 231.808,366.516 231.016,367.534C230.677,367.97 230.756,368.598 231.191,368.937C231.627,369.276 232.256,369.197 232.595,368.762C233.365,367.772 234.443,367.225 235.28,366.259C235.641,365.842 235.596,365.21 235.179,364.849C234.762,364.487 234.13,364.532 233.769,364.949Z"/>
            </g>
            <g transform="matrix(0.0182178,0,0,0.167122,686.222,188.46)">
                <path d="M282.647,363.367C283.374,363.852 284.177,364.891 284.624,365.637C284.908,366.11 285.523,366.264 285.996,365.98C286.469,365.696 286.623,365.081 286.339,364.608C285.762,363.645 284.695,362.329 283.756,361.703C283.297,361.397 282.675,361.521 282.369,361.98C282.063,362.439 282.187,363.061 282.647,363.367Z"/>
            </g>
            <g transform="matrix(0.0182178,0,0,0.167122,686.222,188.46)">
                <path d="M283.323,365.06C283.513,365.087 283.713,365.283 283.933,365.457C284.318,365.762 284.69,366.107 284.969,366.317C285.411,366.648 286.038,366.558 286.369,366.117C286.7,365.675 286.611,365.048 286.169,364.717C285.771,364.418 285.186,363.851 284.641,363.503C284.279,363.272 283.919,363.124 283.606,363.08C283.059,363.002 282.552,363.382 282.474,363.928C282.396,364.475 282.777,364.982 283.323,365.06Z"/>
            </g>
            <g transform="matrix(0.0182178,0,0,0.167122,686.222,188.46)">
                <path d="M285.992,367.039C286.181,365.461 285.743,364.897 285.399,363.52C285.265,362.985 284.722,362.659 284.187,362.792C283.651,362.926 283.325,363.47 283.459,364.005C283.734,365.104 284.157,365.541 284.006,366.801C283.941,367.349 284.332,367.847 284.88,367.913C285.428,367.979 285.926,367.587 285.992,367.039Z"/>
            </g>
            <g transform="matrix(0.0182178,0,0,0.167122,686.222,188.46)">
                <path d="M255.7,349.687C256.316,350.041 256.866,350.212 257.375,350.256C258.201,350.327 258.95,350.078 259.727,349.566C260.327,349.17 260.959,348.599 261.714,347.939C262.129,347.576 262.171,346.943 261.808,346.528C261.445,346.113 260.812,346.07 260.397,346.434C259.722,347.024 259.163,347.542 258.626,347.896C258.264,348.134 257.931,348.296 257.546,348.263C257.17,348.231 256.772,348.035 256.287,347.688C255.85,347.377 255.38,347.175 255.155,347.157C254.741,347.125 254.449,347.29 254.248,347.521C254.096,347.697 253.947,347.96 253.992,348.374C254.011,348.543 254.094,348.849 254.355,349.305C254.625,349.778 255.224,349.947 255.7,349.687Z"/>
            </g>
            <g transform="matrix(0.0182178,0,0,0.167122,686.222,188.46)">
                <path d="M206.946,359.363C206.905,359.456 206.869,359.563 206.842,359.687C206.743,360.13 206.955,360.57 207.333,360.778C207.522,361.375 207.739,362.18 207.944,362.542C208.252,363.086 208.702,363.228 209.002,363.228C209.573,363.228 209.889,362.991 210.078,362.754C210.321,362.45 210.457,361.938 210.18,361.289C210.003,360.873 209.591,360.281 209.244,359.683C209.138,359.5 209.04,359.317 208.967,359.139C208.926,359.041 208.888,358.874 208.882,358.846C208.998,358.32 208.674,357.793 208.148,357.662C207.613,357.528 207.069,357.854 206.935,358.389C206.863,358.679 206.867,359.01 206.946,359.363Z" style="fill:rgb(128,128,128);"/>
            </g>
            <g transform="matrix(0.0182178,0,0,0.167122,686.222,188.46)">
                <path d="M217.548,355.118C217.487,354.949 217.431,354.767 217.383,354.574C217.249,354.039 216.706,353.713 216.17,353.847C215.635,353.98 215.309,354.524 215.443,355.059C215.72,356.168 216.199,357.018 216.626,357.453C216.983,357.816 217.363,357.969 217.675,357.995C218.277,358.046 219.255,357.615 219.255,355.825C219.255,355.273 218.807,354.825 218.255,354.825C217.979,354.825 217.729,354.937 217.548,355.118Z" style="fill:rgb(128,128,128);"/>
            </g>
            <g transform="matrix(0.0182178,0,0,0.167122,686.222,188.46)">
                <path d="M217.444,354.824C217.24,354.762 217.014,354.766 216.799,354.848C216.284,355.046 216.027,355.625 216.225,356.141C216.764,357.542 217.751,357.654 218.282,357.437C218.511,357.343 218.739,357.173 218.923,356.893C219.123,356.59 219.299,356.069 219.299,355.343C219.299,354.791 218.851,354.343 218.299,354.343C217.937,354.343 217.62,354.536 217.444,354.824Z" style="fill:rgb(128,128,128);"/>
            </g>
            <g transform="matrix(0.0182178,0,0,0.167122,686.222,188.46)">
                <path d="M216.45,356.704C217.061,357.247 217.58,358.258 218.04,359.388C218.803,361.26 219.349,363.466 219.595,364.819C219.694,365.362 220.215,365.722 220.758,365.624C221.301,365.525 221.662,365.004 221.563,364.461C221.299,363.009 220.711,360.642 219.892,358.634C219.299,357.176 218.566,355.909 217.779,355.21C217.366,354.843 216.734,354.88 216.367,355.293C216,355.705 216.038,356.338 216.45,356.704Z" style="fill:rgb(128,128,128);"/>
            </g>
            <g transform="matrix(0.0182178,0,0,0.167122,686.222,188.46)">
                <path d="M226.508,349.905C226.508,354.75 228.611,359.757 229.416,364.585C229.506,365.129 230.022,365.498 230.566,365.407C231.111,365.316 231.479,364.8 231.388,364.256C230.601,359.534 228.508,354.644 228.508,349.905C228.508,349.353 228.06,348.905 227.508,348.905C226.956,348.905 226.508,349.353 226.508,349.905Z" style="fill:rgb(128,128,128);"/>
            </g>
            <g transform="matrix(0.0182178,0,0,0.167122,686.222,188.46)">
                <path d="M234.615,344.822C235.805,346.964 236.363,350.053 236.713,353.381C237.266,358.63 237.274,364.456 238.061,368.388C238.169,368.929 238.696,369.281 239.237,369.172C239.778,369.064 240.13,368.537 240.022,367.996C239.245,364.112 239.248,358.356 238.702,353.171C238.321,349.543 237.661,346.187 236.363,343.85C236.095,343.368 235.486,343.194 235.003,343.462C234.521,343.73 234.347,344.339 234.615,344.822Z" style="fill:rgb(128,128,128);"/>
            </g>
            <g transform="matrix(0.0182178,0,0,0.167122,686.222,188.46)">
                <path d="M244.868,350.411C246.562,357.185 246.383,364.233 248.069,370.978C248.203,371.513 248.747,371.839 249.282,371.705C249.818,371.571 250.144,371.028 250.01,370.493C248.324,363.748 248.502,356.7 246.808,349.926C246.675,349.39 246.131,349.064 245.596,349.198C245.06,349.332 244.734,349.876 244.868,350.411Z" style="fill:rgb(128,128,128);"/>
            </g>
            <g transform="matrix(0.0182178,0,0,0.167122,686.222,188.46)">
                <path d="M259.624,358.071C260.567,360.899 261.273,364.707 261.779,367.742C261.87,368.287 262.386,368.655 262.93,368.564C263.474,368.473 263.843,367.958 263.752,367.413C263.23,364.283 262.494,360.356 261.522,357.439C261.347,356.915 260.78,356.632 260.257,356.806C259.733,356.981 259.45,357.548 259.624,358.071Z" style="fill:rgb(128,128,128);"/>
            </g>
            <g transform="matrix(0.0182178,0,0,0.167122,686.222,188.46)">
                <path d="M268.104,350.561C269.214,355.553 270.192,360.771 271.032,365.813C271.123,366.357 271.639,366.725 272.183,366.635C272.727,366.544 273.096,366.028 273.005,365.484C272.159,360.408 271.174,355.154 270.057,350.127C269.937,349.588 269.402,349.248 268.864,349.368C268.325,349.487 267.985,350.022 268.104,350.561Z" style="fill:rgb(128,128,128);"/>
            </g>
            <g transform="matrix(0.0182178,0,0,0.167122,686.222,188.46)">
                <path d="M279.565,345.444C280.902,350.123 281.665,354.997 282.615,359.749C282.724,360.29 283.251,360.642 283.792,360.533C284.333,360.425 284.685,359.898 284.576,359.357C283.615,354.552 282.839,349.625 281.488,344.895C281.336,344.364 280.782,344.056 280.251,344.208C279.721,344.359 279.413,344.913 279.565,345.444Z" style="fill:rgb(128,128,128);"/>
            </g>
            <g transform="matrix(0.0182178,0,0,0.167122,686.222,188.46)">
                <path d="M282.299,357.37C282.444,358.384 282.859,359.666 282.859,360.737C282.859,361.289 283.307,361.737 283.859,361.737C284.411,361.737 284.859,361.289 284.859,360.737C284.859,359.578 284.436,358.185 284.279,357.087C284.201,356.541 283.694,356.161 283.147,356.239C282.601,356.317 282.221,356.824 282.299,357.37Z" style="fill:rgb(128,128,128);"/>
            </g>
            <g transform="matrix(0.0182178,0,0,0.167122,686.222,188.46)">
                <path d="M291.948,352.652C292.054,352.566 292.143,352.456 292.208,352.326C292.455,351.832 292.255,351.231 291.761,350.984C291.219,350.713 290.818,350.78 290.564,350.888C290.249,351.02 290.005,351.263 289.888,351.657C289.798,351.96 289.833,352.551 290.056,353.266C290.38,354.303 291.057,355.794 291.207,356.618C291.792,359.832 291.837,363.007 292.624,366.154C292.758,366.689 293.302,367.015 293.837,366.882C294.372,366.748 294.698,366.204 294.565,365.669C293.788,362.564 293.752,359.431 293.175,356.26C293.013,355.368 292.253,353.713 291.948,352.652Z" style="fill:rgb(128,128,128);"/>
            </g>
            <g transform="matrix(0.0182178,0,0,0.167122,686.222,188.46)">
                <path d="M301.847,355.518C301.847,356.454 302.495,359.174 302.86,361.723C303.073,363.211 303.211,364.632 302.945,365.482C302.781,366.008 303.075,366.57 303.602,366.734C304.128,366.899 304.69,366.605 304.854,366.078C305.182,365.03 305.102,363.275 304.84,361.44C304.491,359.005 303.847,356.411 303.847,355.518C303.847,354.966 303.399,354.518 302.847,354.518C302.295,354.518 301.847,354.966 301.847,355.518Z" style="fill:rgb(128,128,128);"/>
            </g>
            <g transform="matrix(0.0182178,0,0,0.167122,686.222,188.46)">
                <path d="M310.143,360.746C310.725,362.493 310.837,364.523 310.837,366.35C310.837,366.902 311.285,367.35 311.837,367.35C312.389,367.35 312.837,366.902 312.837,366.35C312.837,364.316 312.689,362.059 312.04,360.114C311.866,359.59 311.299,359.307 310.776,359.481C310.252,359.656 309.969,360.223 310.143,360.746Z" style="fill:rgb(128,128,128);"/>
            </g>
        </g>
    </g>
</svg>
