<?xml version="1.0" encoding="UTF-8" standalone="no"?>
<!DOCTYPE svg PUBLIC "-//W3C//DTD SVG 1.1//EN" "http://www.w3.org/Graphics/SVG/1.1/DTD/svg11.dtd">
<svg width="100%" height="100%" viewBox="0 0 243 190" version="1.1" xmlns="http://www.w3.org/2000/svg" xmlns:xlink="http://www.w3.org/1999/xlink" xml:space="preserve" xmlns:serif="http://www.serif.com/" style="fill-rule:evenodd;clip-rule:evenodd;stroke-linejoin:round;stroke-miterlimit:2;">
    <g transform="matrix(1,0,0,1,-357.476,-431.334)">
        <g transform="matrix(54.8914,0,0,5.98366,-37667.7,-1127.68)">
            <g transform="matrix(0.0182178,0,0,0.167122,686.222,188.46)">
                <path d="M436.153,494.66C435.791,495.199 435.522,495.773 435.37,496.361C435.062,497.115 434.803,497.884 434.625,498.637C434.038,501.124 434.344,503.44 436.155,504.849C436.677,505.255 437.284,505.458 437.93,505.501C437.997,505.616 438.074,505.724 438.16,505.823C438.401,506.102 438.676,506.237 438.954,506.29C439.298,506.356 439.683,506.288 440.06,506.047C440.524,505.75 441.029,505.046 441.327,504.594C441.886,504.303 442.385,503.988 442.764,503.726C444.222,502.716 445.722,501.338 446.687,499.842C447.494,498.589 447.926,497.25 447.774,495.955C447.678,495.138 447.358,494.322 446.723,493.55C446.476,492.888 446.042,492.249 445.387,491.662C445.24,491.53 445.09,491.41 444.938,491.301C444.935,491.245 444.926,491.19 444.913,491.134C444.509,489.46 443.84,488.596 443.163,488.279C442.612,488.02 441.989,488.015 441.295,488.335C440.632,488.641 439.843,489.315 438.961,490.338C438.205,491.213 437.094,492.818 436.153,494.66ZM436.853,502.716C436.995,502.919 437.17,503.105 437.383,503.27C437.451,503.323 437.522,503.366 437.597,503.4C437.614,503.253 437.638,503.102 437.669,502.949C437.379,502.91 437.106,502.833 436.853,502.716ZM440.217,502.652C440.05,502.775 439.885,502.851 439.739,502.893C439.713,502.987 439.688,503.079 439.667,503.17C439.759,503.133 439.851,503.094 439.942,503.053C440.013,502.946 440.106,502.811 440.217,502.652ZM443.431,494.347C442.084,493.363 440.374,494.169 439.1,495.423C438.329,496.183 437.699,497.138 437.374,498.11C437.497,498.496 437.735,498.873 438.111,499.223C438.35,499.446 438.627,499.588 438.929,499.668C439.512,498.54 440.138,497.573 440.484,497.126C440.776,496.748 441.412,496.081 442.081,495.68C442.27,495.461 442.466,495.25 442.667,495.049C442.823,494.893 443.113,494.59 443.431,494.347ZM442.577,490.45C442.566,490.427 442.554,490.404 442.541,490.382C442.466,490.246 442.409,490.134 442.314,490.089C442.279,490.073 442.246,490.106 442.203,490.122C442.121,490.152 442.037,490.197 441.948,490.252C441.837,490.321 441.722,490.404 441.605,490.5C441.928,490.449 442.253,490.432 442.577,490.45Z"/>
            </g>
        </g>
        <g transform="matrix(54.8914,0,0,5.98366,-37667.7,-1127.68)">
            <g transform="matrix(0.0182178,0,0,0.167122,686.222,188.46)">
                <path d="M484.413,492.92C483.435,494.282 482.667,495.828 482.231,497.35C481.263,500.734 481.939,503.955 485.028,505.242C486.954,506.045 488.981,505.657 490.744,504.548C491.467,504.228 492.153,503.784 492.681,503.42C494.502,502.162 496.269,499.887 497.171,497.505C498.044,495.2 498.088,492.81 496.845,491.051C496.286,490.26 495.461,489.577 494.299,489.095C494.136,486.796 493.079,485.649 491.854,485.381C490.663,485.119 489.041,485.715 487.506,487.39C486.321,488.683 485.173,490.704 484.413,492.92ZM484.031,501.529C484.239,502.144 484.607,502.671 485.174,503.06C484.919,502.768 484.696,502.454 484.503,502.121C484.329,501.939 484.172,501.741 484.031,501.529ZM487.851,498.474C487.558,499.372 487.367,500.152 487.296,500.588C487.282,500.675 487.244,500.846 487.207,501.058C487.309,501.12 487.418,501.175 487.534,501.222C487.581,501.241 487.629,501.257 487.676,501.271C487.868,501.034 488.061,500.766 488.256,500.48L488.337,500.358C488.217,500.003 488.128,499.56 488.066,499.096C488.047,498.951 488.031,498.805 488.016,498.66C487.995,498.638 487.974,498.616 487.954,498.594C487.918,498.554 487.883,498.514 487.851,498.474ZM490.441,491.129C489.51,490.992 488.671,491.408 487.985,492.103C487.286,492.811 486.733,493.789 486.36,494.846C485.974,495.943 485.78,497.13 485.848,498.211C486.419,496.39 487.393,494.006 488.617,492.66C489.357,491.846 490.186,491.376 491.061,491.359C490.851,491.256 490.645,491.18 490.441,491.129ZM492.474,494.622C492.326,494.1 491.99,493.669 491.399,493.424C491.05,493.28 490.735,493.433 490.436,493.679C490.102,493.953 489.795,494.341 489.508,494.786C489.315,495.085 489.131,495.41 488.959,495.747C489.241,495.828 489.55,496.039 489.722,496.518C489.799,496.733 489.852,497.139 489.906,497.615L489.948,497.643L489.979,497.662C490.287,497.136 490.58,496.642 490.85,496.225C491.24,495.62 491.605,495.16 491.897,494.917C492.105,494.744 492.299,494.656 492.474,494.622ZM494.337,491.366C494.53,491.628 494.693,491.903 494.828,492.188C495.393,493.164 495.67,494.262 495.706,495.402C495.935,494.231 495.845,493.102 495.212,492.206C494.988,491.889 494.698,491.608 494.337,491.366ZM492.21,488.52C492.147,488.225 492.058,487.975 491.939,487.769C491.807,487.539 491.641,487.381 491.426,487.334C491.146,487.273 490.83,487.362 490.488,487.531C490.002,487.772 489.493,488.183 488.981,488.741C488.86,488.873 488.739,489.014 488.62,489.163C489.79,488.591 491.015,488.344 492.21,488.52Z"/>
            </g>
        </g>
        <g transform="matrix(54.8914,0,0,5.98366,-37667.7,-1127.68)">
            <g transform="matrix(0.0182178,0,0,0.167122,686.222,188.46)">
                <path d="M389.764,558.482C393.989,553.05 401.213,548.32 406.618,544.153C425.945,529.251 452.117,519.03 476.912,523.397C489.534,525.621 500.353,531.443 511.225,537.967C520.034,543.252 527.311,548.917 533.827,556.829C534.178,557.255 534.808,557.316 535.235,556.965C535.661,556.615 535.722,555.984 535.371,555.558C528.704,547.463 521.266,541.659 512.254,536.252C501.169,529.601 490.127,523.694 477.259,521.428C451.918,516.965 425.149,527.34 405.396,542.569C399.869,546.83 392.507,551.698 388.185,557.255C387.847,557.69 387.925,558.319 388.361,558.658C388.796,558.997 389.425,558.918 389.764,558.482Z"/>
            </g>
        </g>
        <g transform="matrix(54.8914,0,0,5.98366,-37667.7,-1127.68)">
            <g transform="matrix(0.0182178,-0.000267798,0,0.167122,686.222,188.62)">
                <path d="M397.691,449.643C393.372,452.69 389.459,456.373 386.125,459.895C361.753,485.634 349.976,524.012 362.606,558.167C372.009,583.592 395.865,601.891 420.243,611.545C481.925,635.973 560.842,609.961 593.108,551.061C595.34,546.985 596.936,542.403 598.216,537.953C606.635,508.68 588.486,482.956 566.281,465.668C536.265,442.3 501.061,434.112 463.883,431.984C453.826,431.409 443.036,430.508 432.736,431.598C422.279,432.705 412.327,435.857 404.105,443.379C401.745,445.538 399.666,447.555 397.691,449.643ZM392.149,456.728C390.527,458.233 388.999,459.771 387.578,461.271C363.715,486.473 352.115,524.033 364.482,557.476C373.689,582.373 397.106,600.232 420.976,609.686C481.768,633.761 559.553,608.147 591.353,550.098C593.516,546.149 595.054,541.708 596.294,537.398C604.475,508.951 586.632,484.045 565.054,467.246C535.37,444.136 500.539,436.086 463.772,433.981C453.819,433.412 443.142,432.509 432.949,433.587C422.913,434.649 413.347,437.637 405.456,444.856C405.214,445.077 404.975,445.297 404.738,445.516C408.841,443.62 413.188,442.526 417.665,442.765C418.217,442.794 418.641,443.266 418.612,443.817C418.584,444.368 418.113,444.792 417.562,444.762C410.973,444.41 404.708,447.142 399.131,451.034C397.341,452.927 395.637,454.881 393.882,457.059C393.536,457.489 392.906,457.556 392.476,457.21C392.316,457.08 392.206,456.911 392.149,456.728Z"/>
            </g>
        </g>
    </g>
</svg>
